<svg xmlns="http://www.w3.org/2000/svg" viewBox="0 0 525 375"><g id="Hospital"><rect x="8.366" y="89.696" width="508.268" height="261.116" style="fill:#e7d8a4;"/><rect x="28.631" y="122.12" width="467.738" height="186.552" style="fill:#2f8b88;"/><path d="M28.631,122.12l12.527,0l0,186.553l-12.527,0l0,-186.553Zm67.921,186.553l-12.73,0l0,-186.553l12.73,0l0,186.553Zm55.394,0l-12.73,0l0,-186.553l12.73,0l0,186.553Zm178.921,0l-136.257,0l0,-186.553l136.257,0l0,186.553Zm55.394,0l-12.73,0l0,-186.553l12.73,0l0,186.553Zm55.393,0l-12.729,0l0,-186.553l12.729,0l0,186.553Zm54.715,0l-12.051,0l0,-186.553l12.051,0l0,186.553Z" style="fill:#fff;"/><path d="M496.369,297.239l0,11.377l-467.738,0l0,-11.377l467.738,0Zm-467.738,-58.792l467.738,0l0,11.377l-467.738,0l0,-11.377Zm0,-60.933l467.738,0l0,11.377l-467.738,0l0,-11.377Zm0,-55.394l467.738,0l0,11.378l-467.738,0l0,-11.378Z" style="fill:#fff;"/><g><rect x="54.968" y="335.255" width="6.647" height="15.558" style="fill:#b54c2e;"/><rect x="66.046" y="335.255" width="6.647" height="15.558" style="fill:#b54c2e;"/><rect x="93.743" y="335.255" width="6.647" height="15.558" style="fill:#b54c2e;"/><rect x="104.822" y="335.255" width="6.647" height="15.558" style="fill:#b54c2e;"/><rect x="138.058" y="335.255" width="6.647" height="15.558" style="fill:#b54c2e;"/><rect x="149.137" y="335.255" width="6.647" height="15.558" style="fill:#b54c2e;"/><rect x="182.373" y="335.255" width="6.647" height="15.558" style="fill:#b54c2e;"/><path d="M202.415,302.019c0,0 -110.294,0 -150.572,0c-3.649,0 -7.118,1.582 -9.512,4.336c-2.393,2.754 -3.475,6.411 -2.967,10.024c0.899,6.381 1.912,13.569 2.619,18.588c0.515,3.66 3.647,6.382 7.343,6.382c29.834,0 153.089,0 153.089,0l0,-39.33Z" style="fill:#67876b;"/></g><g><rect x="463.419" y="335.255" width="6.647" height="15.558" style="fill:#b54c2e;"/><rect x="452.341" y="335.255" width="6.647" height="15.558" style="fill:#b54c2e;"/><rect x="424.644" y="335.255" width="6.647" height="15.558" style="fill:#b54c2e;"/><rect x="413.565" y="335.255" width="6.647" height="15.558" style="fill:#b54c2e;"/><rect x="380.329" y="335.255" width="6.647" height="15.558" style="fill:#b54c2e;"/><rect x="369.25" y="335.255" width="6.647" height="15.558" style="fill:#b54c2e;"/><rect x="336.014" y="335.255" width="6.647" height="15.558" style="fill:#b54c2e;"/><path d="M322.619,302.019c0,0 110.294,0 150.572,0c3.649,0 7.119,1.582 9.512,4.336c2.394,2.754 3.476,6.411 2.967,10.024c-0.899,6.381 -1.911,13.569 -2.618,18.588c-0.516,3.66 -3.648,6.382 -7.344,6.382c-29.834,0 -153.089,0 -153.089,0l0,-39.33Z" style="fill:#67876b;"/></g><rect x="186.334" y="24.187" width="152.333" height="326.625" style="fill:#fdedb6;"/><path d="M232.696,78.039l18.146,0l0,-18.147l23.316,0l0,18.147l18.146,0l0,23.315l-18.146,0l0,18.146l-23.316,0l0,-18.146l-18.146,0l0,-23.315Z" style="fill:#b54c2e;"/><rect x="202.415" y="139.162" width="120.17" height="105.248" style="fill:#2f8b88;"/><rect x="202.415" y="139.162" width="120.17" height="105.248" style="fill:#fff;"/><rect x="213.698" y="148.584" width="43.377" height="86.404" style="fill:#2f8b88;"/><path d="M267.925,148.584l43.377,0l0,86.404l-43.377,0l0,-86.404Zm54.66,86.404l0,-86.404l0,86.404Z" style="fill:#2f8b88;"/><rect x="202.415" y="259.356" width="120.17" height="91.456" style="fill:#2f8b88;"/><path d="M322.585,259.356l0,91.456l-120.17,0l0,-91.456l120.17,0Zm-64.24,81.926l0,-73.503l-44.908,0l0,73.503l44.908,0Zm53.218,0l0,-73.503l-44.908,0l0,73.503l44.908,0Z" style="fill:#fff;"/><rect x="265.236" y="290.896" width="11.377" height="17.777" style="fill:#fff;"/><rect x="248.618" y="290.896" width="11.377" height="17.777" style="fill:#fff;"/><rect x="202.415" y="186.247" width="120.17" height="11.079" style="fill:#fff;"/></g></svg>