<svg xmlns="http://www.w3.org/2000/svg" viewBox="0 0 1446 461"><g id="Inverted"><path d="M217.778,330.068l-213.258,0c2.85,-42.447 15.03,-82.491 34.601,-118.286l185.374,97.148c-3.052,6.685 -5.327,13.766 -6.717,21.138Zm411.169,0l-213.258,0c-1.394,-7.397 -3.681,-14.5 -6.748,-21.205l185.295,-97.282c19.636,35.846 31.855,75.96 34.711,118.487Zm-366.21,-63.815c-11.571,7.043 -21.532,16.281 -29.236,27.097l-185.265,-97.09c28.512,-45.325 69.289,-82.849 117.941,-108.389l96.56,178.382Zm107.953,-0.024l96.474,-178.424c48.638,25.504 89.413,62.984 117.944,108.261l-185.185,97.224c-7.707,-10.802 -17.666,-20.028 -29.233,-27.061Zm-194.395,-197.434c42.403,-19.816 90.069,-30.943 140.439,-30.943c50.316,0 97.934,11.104 140.303,30.88l-102.485,189.542c-11.676,-4.529 -24.444,-7.024 -37.818,-7.024c-13.391,0 -26.174,2.501 -37.862,7.041l-102.577,-189.496Z" style="fill:#fff;"/><path d="M797.285,129.44c-3.372,-9.459 -5.058,-13.076 -7.025,-13.076c-1.686,0 -2.81,1.392 -7.025,12.798l-59.573,158.854l-0.562,0c-4.215,-14.745 -33.439,-116.845 -37.654,-134.65c-2.81,-12.273 -5.339,-22.012 -5.339,-25.629c0,-3.617 1.967,-5.843 3.653,-6.678c3.372,-1.669 8.711,-1.669 10.959,-1.669c1.405,0 2.81,-0.276 2.81,-1.931c0,-1.103 -1.124,-1.93 -5.058,-1.93c-14.05,0 -26.414,0.8 -28.943,0.8c-3.091,0 -18.546,-0.8 -33.158,-0.8c-2.81,0 -4.496,0.551 -4.496,1.93c0,1.655 1.124,1.931 2.529,1.931c1.967,0 8.992,0.278 12.645,1.669c7.306,2.783 10.959,6.956 15.455,21.704l50.018,165.002c5.62,18.921 7.025,21.982 9.835,21.982c3.372,0 4.777,-3.061 9.274,-14.748c10.116,-25.877 48.613,-127.995 58.729,-154.707l0.562,0l55.077,154.986c3.934,10.851 5.62,14.469 8.43,14.469c3.091,0 4.496,-3.339 11.802,-23.93c10.959,-31.164 39.34,-119.647 51.704,-154.985c5.339,-15.304 9.835,-26.99 18.265,-30.051c3.091,-1.113 8.43,-1.391 9.554,-1.391c1.686,0 2.528,-0.828 2.528,-2.207c0,-1.103 -1.404,-1.654 -3.933,-1.654c-8.711,0 -20.794,0.8 -22.761,0.8c-2.529,0 -14.331,-0.8 -28.662,-0.8c-3.372,0 -4.777,0.551 -4.777,1.93c0,1.103 1.124,1.931 2.529,1.931c12.926,0 16.017,3.339 16.017,8.347c0,3.617 -0.281,7.513 -3.091,17.808c-9.835,35.616 -35.687,116.309 -43.274,141.908l-1.124,0l-55.92,-158.013Z" style="fill:#fff;fill-rule:nonzero;"/><path d="M1171.68,119.146c-0.562,-5.287 -1.405,-7.513 -3.372,-7.513c-1.967,0 -3.091,1.948 -4.215,4.452l-82.614,174.741l-85.985,-175.019c-1.405,-3.061 -2.529,-4.174 -4.215,-4.174c-1.686,0 -2.81,1.948 -3.091,5.009l-20.232,181.419c-1.124,10.573 -1.967,21.425 -11.24,23.095c-4.215,0.834 -6.182,0.834 -8.43,0.834c-1.405,0 -2.81,0.552 -2.81,1.379c0,1.931 1.967,2.482 4.777,2.482c7.587,0 21.075,-0.8 23.604,-0.8c2.248,0 15.736,0.8 26.133,0.8c3.372,0 5.058,-0.551 5.058,-2.482c0,-0.827 -1.124,-1.379 -2.248,-1.379c-1.686,0 -5.901,-0.278 -10.678,-1.391c-4.215,-0.835 -7.306,-4.452 -7.306,-8.626c0,-4.73 0,-9.738 0.281,-14.19l11.24,-129.108l1.124,0c3.091,7.512 34.563,74.292 37.092,79.301c1.405,2.782 25.57,50.92 32.876,64.554c5.339,10.012 6.744,12.77 8.711,12.77c2.529,0 3.372,-2.482 9.273,-14.718l68.845,-144.69l0.843,0l13.488,144.412c0.562,5.008 0.281,9.739 -1.124,10.017c-1.405,0.278 -1.967,0.835 -1.967,1.948c0,1.378 1.405,2.206 7.868,2.757c10.397,0.828 40.744,1.103 46.926,1.103c3.372,0 5.9,-0.827 5.9,-2.482c0,-1.103 -0.842,-1.378 -2.247,-1.378c-2.81,0 -10.116,0 -18.265,-2.505c-12.082,-3.895 -14.049,-19.477 -15.173,-29.494l-18.827,-171.124Z" style="fill:#fff;fill-rule:nonzero;"/><path d="M1371.51,329.747c17.99,0 39.353,-1.943 50.597,-6.383c5.06,-2.22 5.622,-2.775 7.298,-8.052c2.793,-9.462 6.157,-33.674 6.157,-35.623c0,-2.226 -0.562,-4.194 -1.968,-4.194c-1.675,0 -2.234,1.133 -2.792,4.194c-0.838,5.01 -4.479,17.255 -10.382,23.378c-11.244,11.41 -27.828,13.915 -48.91,13.915c-60.155,0 -101.476,-48.703 -101.476,-101.858c0,-28.387 4.778,-53.156 25.298,-72.637c9.839,-9.462 27.267,-20.315 64.653,-20.315c24.736,0 46.381,7.513 56.219,15.862c7.308,6.123 11.805,17.533 11.805,28.387c0,3.896 0.279,5.844 2.234,5.844c1.676,0 2.234,-1.669 2.514,-5.844c0.279,-4.175 0.279,-19.481 0.837,-28.665c0.563,-10.019 1.406,-13.358 1.406,-15.584c0,-1.664 -0.562,-2.773 -3.64,-3.051c-8.972,-0.554 -17.967,-2.218 -28.649,-4.16c-13.773,-2.496 -29.515,-3.328 -40.759,-3.328c-43.289,0 -68.869,13.043 -85.734,29.741c-24.987,24.769 -31.442,57.33 -31.442,75.976c0,26.439 6.735,58.165 33.972,82.377c22.206,19.752 50.597,30.02 92.762,30.02Z" style="fill:#fff;fill-rule:nonzero;"/><path d="M15.794,422.548c0,11.316 0,20.631 -0.601,25.583c-0.481,3.42 -1.082,6.014 -3.488,6.486c-1.082,0.25 -2.526,0.486 -3.608,0.486c-0.722,0 -0.962,0.351 -0.962,0.701c0,0.702 0.601,0.935 1.924,0.935c1.804,0 4.57,-0.233 6.976,-0.233c2.521,-0.12 4.563,-0.12 4.803,-0.12c0.48,0 3.843,0.118 7.331,0.353c3.49,0.119 7.34,0.354 8.664,0.354c20.576,0 30.665,-13.077 30.665,-25.698c0,-13.801 -11.893,-22.176 -20.798,-24.875c5.652,-5.779 11.296,-11.559 11.296,-21.232c0,-5.898 -4.323,-17.679 -24.05,-17.679c-5.536,0 -10.226,0.339 -13.108,0.339c-0.6,0 -8.171,-0.339 -13.583,-0.339c-1.323,0 -1.925,0.235 -1.925,0.939c0,0.47 0.482,0.705 0.963,0.705c1.082,-0.008 3.127,0.11 4.089,0.346c3.969,0.826 4.931,2.713 5.172,6.724c0.24,3.775 0.24,7.078 0.24,25.48l0,20.745Zm9.607,-49.764c0,-0.708 0.361,-1.062 1.445,-1.298c1.925,-0.472 4.453,-0.59 5.776,-0.59c11.795,0 16.248,10.499 16.248,20.29c0,4.837 -1.805,9.084 -4.333,11.915c-2.527,2.831 -4.212,3.067 -10.952,3.067c-4.453,0 -6.619,-0.354 -7.341,-0.472c-0.602,-0.236 -0.843,-0.472 -0.843,-1.298l0,-31.614Zm0,37.379c0,-0.59 0.241,-0.826 0.722,-0.826c1.806,0 7.823,0 9.388,0.236c2.886,0.354 5.894,0.707 9.986,3.42c9.265,6.252 11.672,16.514 11.672,23.592c0,13.329 -10.469,16.749 -16.967,16.749c-2.166,0 -7.34,-0.235 -10.589,-1.769c-3.73,-1.769 -3.73,-3.421 -4.091,-9.2c-0.121,-1.77 -0.121,-16.396 -0.121,-25.479l0,-6.723Z" style="fill:#fff;fill-rule:nonzero;"/><path d="M90.365,424.674c0,14.625 4.083,21.584 9.247,26.302c7.458,6.825 18.527,7.06 22.016,7.06c6.256,0 14.438,-0.822 22.138,-7.296c8.408,-7.077 9.848,-19.225 9.848,-30.076l0,-10.732c0,-15.569 -0.12,-18.399 0.121,-21.584c0.24,-3.302 0.842,-4.953 3.728,-5.543c1.323,-0.235 1.925,-0.235 2.646,-0.235c0.481,0 0.842,-0.468 0.842,-0.818c0,-0.585 -0.481,-0.818 -1.684,-0.818c-3.127,0 -8.173,0.221 -8.893,0.221c-0.601,0 -6.728,-0.221 -11.421,-0.221c-1.203,0 -1.684,0.233 -1.684,0.818c0,0.35 0.361,0.818 0.842,0.818c0.963,0 2.767,0.117 3.61,0.235c3.489,0.472 4.09,2.359 4.211,5.543c0.12,3.185 0.24,6.015 0.24,21.584l0,12.62c0,10.26 -1.083,18.516 -6.016,24.296c-3.609,4.245 -9.865,7.076 -16.362,7.076c-6.016,0 -10.588,-0.826 -15.761,-5.425c-4.572,-4.01 -7.821,-10.025 -7.821,-24.532l0,-14.035c0,-15.569 0,-18.399 0.241,-21.584c0.241,-3.302 0.842,-5.071 3.609,-5.543c1.324,-0.235 1.925,-0.235 2.647,-0.235c0.482,0 0.963,-0.468 0.963,-0.818c0,-0.585 -0.602,-0.818 -1.805,-0.818c-3.128,0 -9.738,0.221 -10.698,0.221c-0.961,0 -7.33,-0.221 -12.141,-0.221c-1.203,0 -1.684,0.233 -1.684,0.818c0,0.35 0.481,0.818 0.842,0.818c0.962,0 2.766,0.117 3.608,0.235c3.488,0.472 4.09,2.359 4.33,5.543c0.241,3.185 0.241,6.015 0.241,21.584l0,14.742Z" style="fill:#fff;fill-rule:nonzero;"/><path d="M190.425,458.036c5.776,0 12.394,-0.704 16.847,-3.524c7.567,-4.834 9.848,-11.203 9.848,-17.1c0,-8.61 -4.442,-15.568 -17.309,-24.178l-3.008,-2.005c-10.472,-6.958 -13.721,-10.615 -13.721,-16.984c0,-7.076 6.378,-10.85 14.08,-10.85c9.507,0 12.994,3.774 13.715,4.953c0.6,1.062 1.44,3.775 1.56,4.954c0.12,0.826 0.241,1.297 0.961,1.297c0.72,0 0.84,-0.707 0.84,-2.241c0,-6.84 0.481,-10.135 0.481,-10.603c0,-0.586 -0.241,-0.703 -1.081,-0.703c-0.84,0 -1.681,0 -3.722,-0.472c-2.525,-0.592 -6.737,-1.179 -10.949,-1.179c-13.96,0 -23.447,7.06 -23.447,18.854c0,6.959 3.721,13.092 15.144,21.466l4.813,3.538c9.387,6.841 13.359,10.261 13.359,17.456c0,7.548 -5.416,13.327 -15.886,13.327c-7.097,0 -15.039,-2.595 -16.724,-9.907c-0.361,-1.415 -0.361,-2.831 -0.361,-3.656c0,-0.826 -0.358,-1.18 -0.956,-1.18c-0.597,0 -0.836,0.59 -0.836,1.651c-0.12,1.652 -0.598,5.662 -0.598,10.615c0,2.712 0.119,3.064 1.554,3.769c4.326,1.998 10.463,2.702 15.396,2.702Z" style="fill:#fff;fill-rule:nonzero;"/><path d="M256.69,409.932c0,-15.568 0,-18.398 0.12,-21.583c0.241,-3.538 0.842,-4.953 3.729,-5.543c1.203,-0.236 1.924,-0.236 2.646,-0.236c0.361,0 0.842,-0.468 0.842,-0.818c0,-0.585 -0.481,-0.818 -1.684,-0.818c-3.247,0 -10.096,0.221 -10.576,0.221c-0.601,0 -7.21,-0.221 -10.698,-0.221c-1.202,0 -1.683,0.233 -1.683,0.818c0,0.35 0.36,0.818 0.842,0.818c0.721,0 2.044,0.118 3.247,0.354c2.285,0.472 3.127,2.005 3.368,5.425c0.24,3.185 0.24,6.015 0.24,21.583l0,17.691c0,9.671 -0.12,17.573 -0.601,21.701c-0.361,2.949 -0.722,4.836 -2.767,5.307c-0.962,0.236 -2.285,0.472 -3.247,0.472c-0.601,0 -0.842,0.468 -0.842,0.818c0,0.585 0.602,0.818 1.684,0.818c3.247,0 9.856,-0.339 10.457,-0.339c0.48,0 7.329,0.339 13.222,0.339c1.203,0 1.684,-0.35 1.684,-0.818c0,-0.35 -0.241,-0.818 -0.842,-0.818c-0.962,0 -3.247,-0.236 -4.811,-0.472c-3.127,-0.471 -3.488,-2.358 -3.849,-5.307c-0.481,-4.128 -0.481,-12.03 -0.481,-21.701l0,-17.691Z" style="fill:#fff;fill-rule:nonzero;"/><path d="M297.224,395.779c3.245,3.539 15.145,15.804 27.406,28.424c11.178,11.44 26.444,26.183 27.526,27.126c5.903,5.298 6.99,6.118 8.076,6.118c0.725,0 0.846,-0.586 0.846,-7.179l0.24,-58.734c0,-6.015 0.241,-8.02 3.729,-8.728c1.202,-0.236 2.044,-0.236 2.525,-0.236c0.722,0 1.203,-0.585 1.203,-0.935c0,-0.584 -0.842,-0.701 -1.924,-0.701c-4.33,0 -7.826,0.221 -9.033,0.221c-1.208,0 -6.263,-0.221 -11.071,-0.221c-1.202,0 -2.043,0.117 -2.043,0.701c0,0.35 0.12,0.935 0.841,0.935c0.841,0 3.245,0.118 5.169,0.472c3.245,0.59 3.846,2.83 3.966,9.317l1.085,50.243c-3.248,-3.303 -14.547,-15.215 -25.005,-25.829c-16.348,-16.501 -31.734,-32.538 -33.416,-34.189c-1.079,-1.061 -2.879,-3.065 -4.079,-3.065c-0.84,0 -1.44,1.061 -1.44,5.07l0,57.425c0,9.08 -0.36,11.792 -3.006,12.5c-1.564,0.471 -3.488,0.589 -4.33,0.589c-0.481,0 -0.842,0.351 -0.842,0.818c0,0.701 0.601,0.818 1.684,0.818c4.811,0 9.254,-0.339 10.214,-0.339c0.959,0 5.164,0.339 11.174,0.339c1.202,0 1.924,-0.233 1.924,-0.818c0,-0.467 -0.361,-0.818 -0.842,-0.818c-0.962,0 -3.366,-0.118 -5.289,-0.589c-2.885,-0.708 -3.846,-3.184 -4.087,-11.438l-1.201,-47.297Z" style="fill:#fff;fill-rule:nonzero;"/><path d="M394.3,427.618c0,9.673 0,17.576 -0.602,21.705c-0.481,2.949 -0.721,4.955 -2.766,5.309c-0.962,0.117 -2.285,0.471 -3.247,0.471c-0.602,0 -0.842,0.468 -0.842,0.818c0,0.584 0.601,0.819 1.684,0.819c1.683,0 4.089,-0.117 6.133,-0.235c2.282,-0.119 4.323,-0.119 4.563,-0.119c1.562,0 4.324,0 8.776,0.235c4.333,0.119 10.471,0.354 18.414,0.354c4.075,0 5.157,0 5.879,-2.585c0.601,-2.117 1.443,-8.959 1.443,-9.667c0,-0.708 -0.12,-1.541 -0.722,-1.541c-0.601,0 -0.842,0.361 -1.082,1.541c-0.602,4.011 -2.045,5.781 -4.802,6.96c-2.762,1.062 -7.817,1.062 -10.585,1.062c-10.471,0 -12.397,-1.298 -12.637,-8.022c-0.12,-2.005 0,-13.684 0,-17.105l0,-8.376c0,-0.354 0.12,-0.708 0.722,-0.708c1.805,0 13.119,0.118 16.007,0.472c4.092,0.472 5.055,1.652 5.416,3.067c0.481,1.298 0.481,2.36 0.481,3.304c0,0.589 0.239,0.943 0.716,0.943c0.715,0 0.953,-1.061 0.953,-1.887c0,-0.708 0.241,-4.483 0.481,-6.486c0.241,-3.29 0.842,-4.941 0.842,-5.531c0,-0.59 -0.24,-0.825 -0.601,-0.825c-0.361,0 -0.841,0.589 -1.556,1.297c-1.075,1.062 -2.64,1.18 -5.167,1.416c-2.407,0.236 -16.369,0.236 -17.692,0.236c-0.602,0 -0.602,-0.354 -0.602,-1.062l0,-27.252c0,-0.708 0.12,-1.062 0.602,-1.062c1.203,0 13.479,0.118 15.285,0.354c5.777,0.708 6.859,1.416 7.574,3.067c0.477,1.18 0.596,2.832 0.596,3.539c0,0.826 0.238,1.298 0.84,1.298c0.481,0 0.842,-0.59 0.962,-1.062c0.24,-1.168 0.481,-5.648 0.601,-6.592c0.241,-2.83 0.842,-4.009 0.842,-4.716c0,-0.472 -0.12,-0.944 -0.481,-0.944c-0.481,0 -0.962,0.354 -1.443,0.472c-0.842,0.118 -2.752,0.472 -4.797,0.589c-2.408,0.118 -24.544,0 -25.265,0c-0.6,0 -7.449,-0.235 -12.26,-0.235c-1.203,0 -1.684,0.235 -1.684,0.823c0,0.352 0.481,0.822 0.842,0.822c0.962,-0.009 2.766,0.109 3.608,0.227c3.488,0.472 4.09,2.123 4.33,5.544c0.241,3.186 0.241,6.017 0.241,21.589l0,17.679Z" style="fill:#fff;fill-rule:nonzero;"/><path d="M467.178,458.036c5.776,0 12.394,-0.704 16.846,-3.524c7.567,-4.834 9.848,-11.203 9.848,-17.1c0,-8.61 -4.442,-15.568 -17.308,-24.178l-3.008,-2.005c-10.472,-6.958 -13.721,-10.615 -13.721,-16.984c0,-7.076 6.378,-10.85 14.08,-10.85c9.507,0 12.994,3.774 13.714,4.953c0.601,1.062 1.441,3.775 1.561,4.954c0.12,0.826 0.24,1.297 0.961,1.297c0.72,0 0.84,-0.707 0.84,-2.241c0,-6.84 0.48,-10.135 0.48,-10.603c0,-0.586 -0.24,-0.703 -1.08,-0.703c-0.841,0 -1.681,0 -3.722,-0.472c-2.525,-0.592 -6.737,-1.179 -10.949,-1.179c-13.96,0 -23.448,7.06 -23.448,18.854c0,6.959 3.721,13.092 15.144,21.466l4.814,3.538c9.387,6.841 13.359,10.261 13.359,17.456c0,7.548 -5.416,13.327 -15.886,13.327c-7.097,0 -15.039,-2.595 -16.724,-9.907c-0.361,-1.415 -0.361,-2.831 -0.361,-3.656c0,-0.826 -0.358,-1.18 -0.956,-1.18c-0.598,0 -0.837,0.59 -0.837,1.651c-0.119,1.652 -0.597,5.662 -0.597,10.615c0,2.712 0.119,3.064 1.553,3.769c4.327,1.998 10.464,2.702 15.397,2.702Z" style="fill:#fff;fill-rule:nonzero;"/><path d="M530.322,458.036c5.776,0 12.394,-0.704 16.847,-3.524c7.567,-4.834 9.848,-11.203 9.848,-17.1c0,-8.61 -4.442,-15.568 -17.309,-24.178l-3.008,-2.005c-10.472,-6.958 -13.721,-10.615 -13.721,-16.984c0,-7.076 6.378,-10.85 14.08,-10.85c9.508,0 12.995,3.774 13.715,4.953c0.6,1.062 1.441,3.775 1.561,4.954c0.12,0.826 0.24,1.297 0.96,1.297c0.72,0 0.84,-0.707 0.84,-2.241c0,-6.84 0.481,-10.135 0.481,-10.603c0,-0.586 -0.24,-0.703 -1.081,-0.703c-0.84,0 -1.681,0 -3.722,-0.472c-2.524,-0.592 -6.736,-1.179 -10.948,-1.179c-13.96,0 -23.448,7.06 -23.448,18.854c0,6.959 3.721,13.092 15.144,21.466l4.814,3.538c9.386,6.841 13.358,10.261 13.358,17.456c0,7.548 -5.416,13.327 -15.886,13.327c-7.097,0 -15.039,-2.595 -16.724,-9.907c-0.36,-1.415 -0.36,-2.831 -0.36,-3.656c0,-0.826 -0.359,-1.18 -0.957,-1.18c-0.597,0 -0.836,0.59 -0.836,1.651c-0.12,1.652 -0.598,5.662 -0.598,10.615c0,2.712 0.12,3.064 1.554,3.769c4.326,1.998 10.463,2.702 15.396,2.702Z" style="fill:#fff;fill-rule:nonzero;"/><path d="M637.367,458.39c6.498,0 12.995,-1.41 18.169,-4.938c8.288,-5.779 10.209,-14.742 10.209,-19.577c0,-9.436 -3.361,-16.748 -17.548,-27.716l-3.37,-2.595c-11.554,-8.845 -14.683,-13.091 -14.683,-19.813c0,-8.61 6.498,-13.68 14.802,-13.68c11.071,0 14.316,4.952 15.036,6.25c0.721,1.297 1.441,4.481 1.561,5.897c0.12,0.943 0.24,1.533 0.961,1.533c0.6,0 0.84,-0.826 0.84,-2.713c0,-8.02 0.48,-11.905 0.48,-12.491c0,-0.586 -0.24,-0.82 -1.2,-0.82c-0.961,0 -1.921,-0.118 -4.202,-0.59c-3.006,-0.709 -6.496,-1.179 -11.19,-1.179c-15.283,0 -24.891,8.594 -24.891,21.213c0,8.02 2.881,15.332 15.625,25.593l5.416,4.363c10.349,8.374 13.839,13.091 13.839,21.229c0,7.548 -5.656,15.686 -17.209,15.686c-8.06,0 -16.001,-3.302 -17.806,-12.03c-0.361,-1.651 -0.361,-3.302 -0.361,-4.363c0,-0.944 -0.119,-1.298 -0.837,-1.298c-0.597,0 -0.836,0.59 -0.956,1.887c-0.119,1.887 -0.597,6.605 -0.597,12.502c0,3.184 0.119,3.655 1.792,4.477c4.93,2.351 10.465,3.173 16.12,3.173Z" style="fill:#fff;fill-rule:nonzero;"/><path d="M694.867,427.618c0,9.673 0,17.576 -0.601,21.705c-0.481,2.949 -0.722,4.955 -2.767,5.309c-0.962,0.117 -2.285,0.471 -3.247,0.471c-0.601,0 -0.842,0.468 -0.842,0.818c0,0.584 0.601,0.819 1.684,0.819c1.684,0 4.089,-0.117 6.133,-0.235c2.282,-0.119 4.323,-0.119 4.564,-0.119c1.561,0 4.323,0 8.775,0.235c4.333,0.119 10.471,0.354 18.415,0.354c4.074,0 5.156,0 5.878,-2.585c0.601,-2.117 1.443,-8.959 1.443,-9.667c0,-0.708 -0.12,-1.541 -0.721,-1.541c-0.602,0 -0.842,0.361 -1.083,1.541c-0.601,4.011 -2.045,5.781 -4.801,6.96c-2.763,1.062 -7.817,1.062 -10.586,1.062c-10.471,0 -12.396,-1.298 -12.637,-8.022c-0.12,-2.005 0,-13.684 0,-17.105l0,-8.376c0,-0.354 0.12,-0.708 0.722,-0.708c1.805,0 13.119,0.118 16.007,0.472c4.093,0.472 5.055,1.652 5.416,3.067c0.482,1.298 0.482,2.36 0.482,3.304c0,0.589 0.238,0.943 0.715,0.943c0.715,0 0.954,-1.061 0.954,-1.887c0,-0.708 0.24,-4.483 0.481,-6.486c0.24,-3.29 0.842,-4.941 0.842,-5.531c0,-0.59 -0.241,-0.825 -0.602,-0.825c-0.361,0 -0.841,0.589 -1.556,1.297c-1.075,1.062 -2.639,1.18 -5.167,1.416c-2.407,0.236 -16.368,0.236 -17.692,0.236c-0.602,0 -0.602,-0.354 -0.602,-1.062l0,-27.252c0,-0.708 0.12,-1.062 0.602,-1.062c1.203,0 13.48,0.118 15.285,0.354c5.777,0.708 6.859,1.416 7.574,3.067c0.477,1.18 0.596,2.832 0.596,3.539c0,0.826 0.239,1.298 0.84,1.298c0.481,0 0.842,-0.59 0.962,-1.062c0.241,-1.168 0.481,-5.648 0.601,-6.592c0.241,-2.83 0.842,-4.009 0.842,-4.716c0,-0.472 -0.12,-0.944 -0.481,-0.944c-0.481,0 -0.962,0.354 -1.443,0.472c-0.842,0.118 -2.751,0.472 -4.797,0.589c-2.407,0.118 -24.544,0 -25.264,0c-0.601,0 -7.45,-0.235 -12.261,-0.235c-1.203,0 -1.684,0.235 -1.684,0.823c0,0.352 0.481,0.822 0.842,0.822c0.963,-0.009 2.767,0.109 3.609,0.227c3.488,0.472 4.089,2.123 4.329,5.544c0.241,3.186 0.241,6.017 0.241,21.589l0,17.679Z" style="fill:#fff;fill-rule:nonzero;"/><path d="M761.259,427.615c0,9.674 0,17.578 -0.602,21.708c-0.481,2.949 -0.721,4.836 -2.766,5.308c-0.962,0.236 -2.285,0.472 -3.247,0.472c-0.602,0 -0.842,0.468 -0.842,0.818c0,0.585 0.601,0.818 1.684,0.818c3.247,0 10.336,-0.339 10.456,-0.339c0.48,0 7.211,0.339 12.987,0.339c1.203,0 1.685,-0.35 1.685,-0.818c0,-0.35 -0.121,-0.818 -0.843,-0.818c-0.962,0 -3.249,-0.236 -4.693,-0.472c-3.249,-0.472 -3.851,-2.359 -4.212,-5.308c-0.481,-4.13 -0.481,-11.916 -0.481,-21.59l0,-2.359c0,-0.59 0.24,-0.825 0.722,-0.825l13.478,0.235c0.722,0 0.963,0.118 1.444,0.59c2.287,2.713 6.98,9.202 11.432,14.629c6.004,7.55 9.848,12.387 14.419,14.746c2.646,1.406 5.292,1.99 11.305,1.99l6.616,0c1.924,0 2.525,-0.233 2.525,-0.818c0,-0.35 -0.361,-0.818 -0.962,-0.818c-0.601,0 -1.684,0 -3.728,-0.354c-2.646,-0.354 -6.134,-1.297 -11.787,-6.96c-6.134,-6.253 -13.464,-15.337 -22.118,-25.941c9.855,-8.254 12.977,-15.45 12.977,-22.882c0,-6.96 -4.684,-11.796 -7.326,-13.684c-5.53,-3.761 -12.992,-4.348 -19.731,-4.348c-3.249,0 -12.148,0.221 -13.229,0.221c-0.6,0 -7.689,-0.221 -12.5,-0.221c-1.203,0 -1.684,0.235 -1.684,0.822c0,0.352 0.481,0.822 0.842,0.822c0.962,-0.008 2.766,0.11 3.608,0.228c3.488,0.472 4.09,2.123 4.33,5.544c0.241,3.185 0.241,6.016 0.241,21.587l0,17.678Zm9.126,-41.389c0,-0.59 0.361,-0.944 0.842,-1.18c1.083,-0.236 4.453,-0.59 7.582,-0.59c11.312,0 18.292,7.196 18.292,19.7c0,7.668 -2.768,12.976 -6.378,15.336c-2.528,1.651 -5.416,1.769 -7.943,1.769c-4.693,0 -10.109,-0.708 -11.673,-1.533c-0.482,-0.354 -0.722,-0.708 -0.722,-1.298l0,-32.204Z" style="fill:#fff;fill-rule:nonzero;"/><path d="M845.447,393.182c-1.563,-4.009 -2.886,-7.075 -2.886,-8.372c0,-0.707 0.12,-1.297 1.202,-1.769c0.962,-0.353 2.646,-0.471 3.848,-0.471c0.722,0 1.083,-0.468 1.083,-0.935c0,-0.468 -0.962,-0.701 -2.886,-0.701c-4.089,0 -8.779,0.221 -9.861,0.221c-1.323,0 -7.336,-0.221 -12.386,-0.221c-1.684,0 -2.766,0.117 -2.766,0.701c0,0.35 0.24,0.935 0.842,0.935c0.601,0 2.405,0 4.088,0.354c3.488,0.825 4.931,1.886 7.336,7.546l25.974,61.435c2.045,4.834 2.766,6.131 3.969,6.131c1.082,0 1.683,-1.532 4.569,-7.546c2.405,-4.953 7.095,-15.801 13.589,-30.423c5.411,-12.263 10.582,-24.291 11.785,-27.121c2.766,-6.839 4.449,-8.254 5.892,-9.197c1.924,-1.179 4.329,-1.179 5.051,-1.179c0.842,0 1.203,-0.468 1.203,-0.935c0,-0.468 -0.602,-0.701 -1.684,-0.701c-3.127,0 -7.696,0.221 -8.298,0.221c-1.323,0 -6.133,-0.221 -10.341,-0.221c-1.684,0 -2.406,0.233 -2.406,0.818c0,0.467 0.602,0.818 1.203,0.818c1.203,0 2.405,0 3.608,0.354c1.082,0.353 1.443,1.297 1.443,2.122c0,0.825 -0.481,2.24 -0.962,3.773c-2.285,7.193 -16.114,41.389 -22.247,54.832l-19.962,-50.469Z" style="fill:#fff;fill-rule:nonzero;"/><path d="M930.471,409.932c0,-15.568 0,-18.398 0.12,-21.583c0.241,-3.538 0.842,-4.953 3.729,-5.543c1.202,-0.236 1.924,-0.236 2.646,-0.236c0.36,0 0.841,-0.468 0.841,-0.818c0,-0.585 -0.481,-0.818 -1.683,-0.818c-3.248,0 -10.096,0.221 -10.577,0.221c-0.6,0 -7.209,-0.221 -10.697,-0.221c-1.203,0 -1.684,0.233 -1.684,0.818c0,0.35 0.361,0.818 0.842,0.818c0.722,0 2.045,0.118 3.247,0.354c2.286,0.472 3.128,2.005 3.368,5.425c0.241,3.185 0.241,6.015 0.241,21.583l0,17.691c0,9.671 -0.121,17.573 -0.602,21.701c-0.36,2.949 -0.721,4.836 -2.766,5.307c-0.962,0.236 -2.285,0.472 -3.247,0.472c-0.602,0 -0.842,0.468 -0.842,0.818c0,0.585 0.601,0.818 1.684,0.818c3.247,0 9.856,-0.339 10.456,-0.339c0.481,0 7.329,0.339 13.223,0.339c1.202,0 1.684,-0.35 1.684,-0.818c0,-0.35 -0.241,-0.818 -0.842,-0.818c-0.963,0 -3.248,-0.236 -4.811,-0.472c-3.128,-0.471 -3.488,-2.358 -3.849,-5.307c-0.481,-4.128 -0.481,-12.03 -0.481,-21.701l0,-17.691Z" style="fill:#fff;fill-rule:nonzero;"/><path d="M1003.49,458.036c6.858,0 14.798,-0.587 19.129,-2.233c1.805,-0.706 2.045,-1.058 2.642,-2.94c1.076,-3.421 2.515,-12.148 2.515,-12.856c0,-0.708 -0.481,-1.424 -0.961,-1.424c-0.717,0 -0.837,0.363 -1.076,1.424c-0.358,1.887 -1.797,6.133 -4.082,8.374c-4.211,4.128 -9.505,4.718 -17.445,4.718c-22.617,0 -38.137,-17.102 -38.137,-36.326c0,-10.143 1.684,-19.107 9.504,-26.184c3.73,-3.42 10.226,-6.958 23.821,-6.958c9.384,0 17.083,2.477 20.813,5.543c2.767,2.123 4.451,6.133 4.451,10.025c0,1.416 0.12,2.131 0.836,2.131c0.598,0 1.076,-0.598 1.195,-2.131c0.12,-1.415 0.12,-6.958 0.239,-10.261c0.241,-3.656 0.481,-4.835 0.481,-5.659c0,-0.588 -0.24,-1.058 -1.317,-1.058c-3.479,-0.117 -6.848,-0.822 -10.818,-1.527c-5.173,-0.823 -11.188,-1.175 -15.399,-1.175c-16.241,0 -25.866,4.702 -32.242,10.717c-9.37,8.963 -11.893,20.639 -11.893,27.362c0,9.553 2.523,20.994 12.856,29.722c8.301,7.072 19.008,10.716 34.888,10.716Z" style="fill:#fff;fill-rule:nonzero;"/><path d="M1053.05,427.618c0,9.673 0,17.576 -0.601,21.705c-0.482,2.949 -0.722,4.955 -2.767,5.309c-0.962,0.117 -2.285,0.471 -3.247,0.471c-0.602,0 -0.842,0.468 -0.842,0.818c0,0.584 0.601,0.819 1.684,0.819c1.684,0 4.089,-0.117 6.133,-0.235c2.282,-0.119 4.323,-0.119 4.564,-0.119c1.561,0 4.323,0 8.775,0.235c4.333,0.119 10.471,0.354 18.414,0.354c4.075,0 5.157,0 5.879,-2.585c0.601,-2.117 1.443,-8.959 1.443,-9.667c0,-0.708 -0.12,-1.541 -0.722,-1.541c-0.601,0 -0.841,0.361 -1.082,1.541c-0.601,4.011 -2.045,5.781 -4.801,6.96c-2.763,1.062 -7.818,1.062 -10.586,1.062c-10.471,0 -12.396,-1.298 -12.637,-8.022c-0.12,-2.005 0,-13.684 0,-17.105l0,-8.376c0,-0.354 0.12,-0.708 0.722,-0.708c1.805,0 13.119,0.118 16.007,0.472c4.092,0.472 5.055,1.652 5.416,3.067c0.482,1.298 0.482,2.36 0.482,3.304c0,0.589 0.238,0.943 0.715,0.943c0.715,0 0.953,-1.061 0.953,-1.887c0,-0.708 0.241,-4.483 0.482,-6.486c0.24,-3.29 0.842,-4.941 0.842,-5.531c0,-0.59 -0.241,-0.825 -0.602,-0.825c-0.361,0 -0.841,0.589 -1.556,1.297c-1.075,1.062 -2.64,1.18 -5.167,1.416c-2.407,0.236 -16.368,0.236 -17.692,0.236c-0.602,0 -0.602,-0.354 -0.602,-1.062l0,-27.252c0,-0.708 0.12,-1.062 0.602,-1.062c1.203,0 13.48,0.118 15.285,0.354c5.777,0.708 6.859,1.416 7.574,3.067c0.477,1.18 0.596,2.832 0.596,3.539c0,0.826 0.238,1.298 0.84,1.298c0.481,0 0.842,-0.59 0.962,-1.062c0.241,-1.168 0.481,-5.648 0.601,-6.592c0.241,-2.83 0.842,-4.009 0.842,-4.716c0,-0.472 -0.12,-0.944 -0.481,-0.944c-0.481,0 -0.962,0.354 -1.443,0.472c-0.842,0.118 -2.751,0.472 -4.797,0.589c-2.407,0.118 -24.544,0 -25.264,0c-0.601,0 -7.45,-0.235 -12.261,-0.235c-1.203,0 -1.684,0.235 -1.684,0.823c0,0.352 0.481,0.822 0.842,0.822c0.962,-0.009 2.767,0.109 3.609,0.227c3.487,0.472 4.089,2.123 4.329,5.544c0.241,3.186 0.241,6.017 0.241,21.589l0,17.679Z" style="fill:#fff;fill-rule:nonzero;"/><path d="M1125.92,458.036c5.776,0 12.394,-0.704 16.846,-3.524c7.568,-4.834 9.849,-11.203 9.849,-17.1c0,-8.61 -4.442,-15.568 -17.309,-24.178l-3.008,-2.005c-10.472,-6.958 -13.721,-10.615 -13.721,-16.984c0,-7.076 6.378,-10.85 14.08,-10.85c9.507,0 12.994,3.774 13.715,4.953c0.6,1.062 1.44,3.775 1.56,4.954c0.12,0.826 0.241,1.297 0.961,1.297c0.72,0 0.84,-0.707 0.84,-2.241c0,-6.84 0.48,-10.135 0.48,-10.603c0,-0.586 -0.24,-0.703 -1.08,-0.703c-0.84,0 -1.681,0 -3.722,-0.472c-2.525,-0.592 -6.737,-1.179 -10.949,-1.179c-13.96,0 -23.447,7.06 -23.447,18.854c0,6.959 3.721,13.092 15.144,21.466l4.813,3.538c9.387,6.841 13.359,10.261 13.359,17.456c0,7.548 -5.416,13.327 -15.886,13.327c-7.097,0 -15.039,-2.595 -16.724,-9.907c-0.361,-1.415 -0.361,-2.831 -0.361,-3.656c0,-0.826 -0.358,-1.18 -0.956,-1.18c-0.598,0 -0.837,0.59 -0.837,1.651c-0.119,1.652 -0.597,5.662 -0.597,10.615c0,2.712 0.119,3.064 1.554,3.769c4.326,1.998 10.463,2.702 15.396,2.702Z" style="fill:#fff;fill-rule:nonzero;"/><path d="M1234.65,401.796c0,-18.399 0,-21.701 0.241,-25.475c0.24,-4.128 1.202,-6.133 4.69,-6.723c1.444,-0.235 3.128,-0.353 3.97,-0.353c0.481,0 0.962,-0.234 0.962,-0.701c0,-0.701 -0.602,-0.935 -1.925,-0.935c-3.608,0 -12.381,0.339 -12.982,0.339c-0.6,0 -8.171,-0.339 -13.583,-0.339c-1.323,0 -1.925,0.234 -1.925,0.935c0,0.467 0.481,0.701 0.962,0.701c1.083,0 3.128,0.118 4.09,0.353c3.969,0.826 4.931,2.713 5.172,6.723c0.24,3.774 0.24,7.076 0.24,25.475l0,20.757c0,11.311 0,20.626 -0.601,25.578c-0.481,3.42 -1.083,6.014 -3.488,6.486c-1.083,0.25 -2.526,0.486 -3.608,0.486c-0.722,0 -0.963,0.351 -0.963,0.701c0,0.702 0.602,0.935 1.925,0.935c1.804,0 4.45,-0.117 6.855,-0.233c2.402,-0.002 4.444,-0.12 4.924,-0.12c3.483,0 7.209,0.118 12.261,0.353c5.051,0.119 11.306,0.354 19.965,0.354c6.375,0 6.736,-0.47 7.578,-3.173c0.962,-3.416 1.804,-10.492 1.804,-11.789c0,-1.298 -0.12,-1.77 -0.722,-1.77c-0.722,0 -0.962,0.59 -1.082,1.534c-0.361,2.24 -1.564,5.189 -3.127,7.076c-2.887,3.42 -8.179,3.538 -14.554,3.538c-9.381,0 -12.508,-0.825 -14.433,-2.713c-2.165,-2.122 -2.646,-9.67 -2.646,-27.007l0,-20.993Z" style="fill:#fff;fill-rule:nonzero;"/><path d="M1305.97,401.796c0,-18.399 0,-21.701 0.241,-25.475c0.24,-4.128 1.203,-6.133 4.691,-6.723c1.443,-0.235 3.127,-0.353 3.969,-0.353c0.481,0 0.962,-0.234 0.962,-0.701c0,-0.701 -0.602,-0.935 -1.925,-0.935c-3.608,0 -12.381,0.339 -12.982,0.339c-0.6,0 -8.171,-0.339 -13.583,-0.339c-1.323,0 -1.925,0.234 -1.925,0.935c0,0.467 0.481,0.701 0.962,0.701c1.083,0 3.128,0.118 4.09,0.353c3.969,0.826 4.931,2.713 5.172,6.723c0.24,3.774 0.24,7.076 0.24,25.475l0,20.757c0,11.311 0,20.626 -0.601,25.578c-0.481,3.42 -1.083,6.014 -3.488,6.486c-1.083,0.25 -2.526,0.486 -3.608,0.486c-0.722,0 -0.963,0.351 -0.963,0.701c0,0.702 0.602,0.935 1.925,0.935c1.804,0 4.45,-0.117 6.855,-0.233c2.402,-0.002 4.444,-0.12 4.924,-0.12c3.483,0 7.209,0.118 12.261,0.353c5.051,0.119 11.306,0.354 19.965,0.354c6.375,0 6.736,-0.47 7.578,-3.173c0.962,-3.416 1.804,-10.492 1.804,-11.789c0,-1.298 -0.12,-1.77 -0.722,-1.77c-0.721,0 -0.962,0.59 -1.082,1.534c-0.361,2.24 -1.564,5.189 -3.127,7.076c-2.887,3.42 -8.179,3.538 -14.554,3.538c-9.381,0 -12.508,-0.825 -14.433,-2.713c-2.165,-2.122 -2.646,-9.67 -2.646,-27.007l0,-20.993Z" style="fill:#fff;fill-rule:nonzero;"/><path d="M1407.73,458.39c7.699,0 16.842,-0.823 21.654,-2.705c2.166,-0.94 2.406,-1.176 3.124,-3.412c1.195,-4.01 2.635,-14.27 2.635,-15.096c0,-0.943 -0.241,-1.778 -0.842,-1.778c-0.717,0 -0.957,0.481 -1.196,1.778c-0.358,2.123 -1.916,7.312 -4.443,9.907c-4.812,4.835 -11.909,5.897 -20.932,5.897c-25.745,0 -43.429,-20.639 -43.429,-43.166c0,-12.029 2.045,-22.526 10.827,-30.782c4.21,-4.009 11.669,-8.609 27.669,-8.609c10.587,0 19.85,3.184 24.061,6.722c3.128,2.595 5.052,7.431 5.052,12.03c0,1.651 0.12,2.477 0.956,2.477c0.718,0 0.957,-0.708 1.076,-2.477c0.12,-1.769 0.12,-8.256 0.359,-12.147c0.24,-4.246 0.601,-5.662 0.601,-6.605c0,-0.705 -0.24,-1.175 -1.558,-1.292c-3.839,-0.236 -7.689,-0.941 -12.261,-1.763c-5.894,-1.058 -12.631,-1.411 -17.443,-1.411c-18.527,0 -29.475,5.527 -36.693,12.604c-10.694,10.496 -13.456,24.295 -13.456,32.197c0,11.204 2.883,24.649 14.539,34.91c9.504,8.37 21.654,12.721 39.7,12.721Z" style="fill:#fff;fill-rule:nonzero;"/></g></svg>