<svg xmlns="http://www.w3.org/2000/svg" viewBox="0 0 525 375"><g id="Layer3"><g><rect x="96.465" y="82.308" width="147.509" height="234.65" style="fill:#ae7aa0;"/><path d="M180.094,272.518l0,44.44l-26.442,0l0,-44.44l26.442,0Zm-39.475,0l0,35.337l-26.442,0l0,-35.337l26.442,0Zm78.95,0l0,35.337l-26.442,0l0,-35.337l26.442,0Zm-39.475,-57.717l0,35.337l-26.442,0l0,-35.337l26.442,0Zm39.475,0l0,35.337l-26.442,0l0,-35.337l26.442,0Zm-78.95,0l0,35.337l-26.442,0l0,-35.337l26.442,0Zm39.475,-57.717l0,35.337l-26.442,0l0,-35.337l26.442,0Zm39.475,0l0,35.337l-26.442,0l0,-35.337l26.442,0Zm-78.95,0l0,35.337l-26.442,0l0,-35.337l26.442,0Zm39.475,-57.718l0,35.338l-26.442,0l0,-35.338l26.442,0Zm39.475,0l0,35.338l-26.442,0l0,-35.338l26.442,0Zm-78.95,0l0,35.338l-26.442,0l0,-35.338l26.442,0Z" style="fill:#fff;"/><rect x="281.026" y="66.119" width="147.509" height="250.84" style="fill:#475883;"/><path d="M374.369,269.452l0,47.506l-26.443,0l0,-47.506l26.443,0Zm-39.475,0l0,37.775l-26.443,0l0,-37.775l26.443,0Zm78.95,0l0,37.775l-26.443,0l0,-37.775l26.443,0Zm-39.475,-61.7l0,37.776l-26.443,0l0,-37.776l26.443,0Zm39.475,0l0,37.776l-26.443,0l0,-37.776l26.443,0Zm-78.95,0l0,37.776l-26.443,0l0,-37.776l26.443,0Zm39.475,-61.699l0,37.775l-26.443,0l0,-37.775l26.443,0Zm39.475,0l0,37.775l-26.443,0l0,-37.775l26.443,0Zm-78.95,0l0,37.775l-26.443,0l0,-37.775l26.443,0Zm39.475,-61.699l0,37.775l-26.443,0l0,-37.775l26.443,0Zm39.475,0l0,37.775l-26.443,0l0,-37.775l26.443,0Zm-78.95,0l0,37.775l-26.443,0l0,-37.775l26.443,0Z" style="fill:#fff;"/><rect x="192.296" y="24.187" width="147.509" height="292.771" style="fill:#67876b;"/><path d="M280.962,254.249l0,61.09l-29.823,0l0,-61.09l29.823,0Zm-44.521,0l0,42.604l-29.823,0l0,-42.604l29.823,0Zm89.042,0l0,42.604l-29.823,0l0,-42.604l29.823,0Zm-44.521,-69.586l0,42.604l-29.823,0l0,-42.604l29.823,0Zm44.521,0l0,42.604l-29.823,0l0,-42.604l29.823,0Zm-89.042,0l0,42.604l-29.823,0l0,-42.604l29.823,0Zm44.521,-69.587l0,42.604l-29.823,0l0,-42.604l29.823,0Zm44.521,0l0,42.604l-29.823,0l0,-42.604l29.823,0Zm-89.042,0l0,42.604l-29.823,0l0,-42.604l29.823,0Zm44.521,-69.586l0,42.604l-29.823,0l0,-42.604l29.823,0Zm44.521,0l0,42.604l-29.823,0l0,-42.604l29.823,0Zm-89.042,0l0,42.604l-29.823,0l0,-42.604l29.823,0Z" style="fill:#fff;"/></g><g><path d="M372.371,226.765c0,-7.607 -6.176,-13.783 -13.783,-13.783l-184.755,0c-7.607,0 -13.783,6.176 -13.783,13.783l0,110.264c0,7.608 6.176,13.784 13.783,13.784l184.755,0c7.607,0 13.783,-6.176 13.783,-13.784l0,-110.264Z" style="fill:#b54c2e;"/><path d="M229.94,219.796l0,-24.578c0,-3.175 2.578,-5.754 5.754,-5.754l61.033,0c3.176,0 5.754,2.579 5.754,5.754l0,24.578l-11.403,0l0,-19.718c0,-2.165 -1.758,-3.922 -3.924,-3.923l-41.888,0c-2.165,0.001 -3.923,1.758 -3.923,3.923l0,19.718l-11.403,0Z" style="fill:#b54c2e;"/></g></g></svg>