<svg xmlns="http://www.w3.org/2000/svg" viewBox="0 0 525 375"><g><g><circle cx="402.498" cy="69.543" r="36.473" style="fill:#f0c264;"/><path d="M359.446,307.741l-6.903,-67.085c-7.476,4.548 -22.847,2.787 -38.249,-5.084c-18.868,-9.644 -30.683,-24.832 -26.367,-33.895c1.405,-2.952 4.35,-4.893 8.334,-5.834c-5.697,-11.725 -6.64,-22.13 -1.443,-27.03c2.635,-2.484 6.53,-3.253 11.166,-2.533c-4.974,-20.345 -3.801,-36.457 4.033,-39.751c3.938,-1.655 9.011,0.157 14.488,4.628c1.348,-18.15 5.992,-30.536 13.029,-31.5c8.585,-1.177 18.314,14.98 24.84,39.014c3.879,-3.975 7.942,-5.808 11.779,-4.848c7.739,1.937 12.537,14.729 13.096,31.868c5.223,-2.269 9.935,-2.301 13.305,0.414c4.942,3.981 5.907,12.989 3.377,23.694c5.847,-0.643 10.347,0.706 12.332,4.257c4.443,7.947 -5.383,23.936 -21.93,35.682c-12.065,8.566 -24.393,12.525 -31.908,10.961l11.496,67.042l-14.475,0Z" style="fill:#ae7aa0;"/><path d="M415.146,307.741l13.234,-86.98c-9.778,2.95 -26.63,-3.539 -41.728,-16.941c-18.495,-16.42 -27.398,-37.039 -19.869,-46.016c2.453,-2.924 6.348,-4.254 11.125,-4.152c-3.004,-14.914 -1.024,-26.947 6.283,-30.962c3.704,-2.035 8.33,-1.764 13.356,0.406c0.337,-24.442 6.379,-42.303 16.195,-43.731c4.933,-0.718 10.135,2.815 15.015,9.47c6.835,-20.113 15.709,-32.748 23.942,-31.777c10.044,1.184 16.306,22.287 16.644,51.353c5.547,-3.356 10.674,-4.238 14.728,-2.03c8.177,4.454 9.853,20.313 5.467,39.841c6.566,-1.035 11.899,0.308 14.912,4.362c4.418,5.946 2.871,16.406 -3.121,27.76c6.795,0.985 11.484,3.826 12.687,8.419c2.694,10.28 -13.089,25.469 -35.224,33.897c-16.139,6.145 -31.227,7.01 -39.26,3.043l-7.051,84.038l-17.335,0Z" style="fill:#67876b;"/><path d="M415.146,307.741l13.234,-86.98c1.087,-0.068 10.734,2.684 11.152,2.942l-7.051,84.038l-17.335,0Z" style="fill:#2f8b88;"/><path d="M333.292,147.389l-26.387,0l-11.078,202.969l-247.525,0l-11.079,-202.969l-26.539,0l161.304,-123.202l161.304,123.202Z" style="fill:#475883;"/><path d="M211.47,234.359l-69.989,0l5.539,116.453l58.911,0l5.539,-116.453Z" style="fill:#ececec;"/><path d="M114.309,295.611l-5.539,-60.164l-38.159,0l5.539,60.164l38.159,0Z" style="fill:#ececec;"/><path d="M281.329,295.611l2.216,-60.164l-37.605,0l-2.769,60.164l38.158,0Z" style="fill:#ececec;"/><path d="M152.484,146.201l-61.826,0l1.661,38.159l60.165,0l0,-38.159Z" style="fill:#ececec;"/><path d="M264.466,146.201l-62.38,0l0,38.159l60.164,0l2.216,-38.159Z" style="fill:#ececec;"/></g><g id="Car"><rect x="286.126" y="324.593" width="21.485" height="25.975" style="fill:#262626;"/><rect x="432.873" y="324.593" width="21.485" height="25.975" style="fill:#262626;"/><path d="M283.018,295.287c4.828,-17.177 28.966,-60.928 28.966,-60.928l117.799,0c0,0 24.138,43.751 28.965,60.928c3.8,13.521 0,42.133 0,42.133c0,0 -59.218,3.657 -88.506,3.657c-29.1,0 -87.224,-3.657 -87.224,-3.657c0,0 -3.8,-28.612 0,-42.133Z" style="fill:#b54c2e;"/><path d="M421.673,241.093l-102.862,0l-14.628,31.106l132.118,0l-14.628,-31.106Z" style="fill:#ececec;"/><path d="M312.46,298.534l-21.626,-1.463l-1.463,15.533l26.014,0l-2.925,-14.07Z" style="fill:#ececec;"/><path d="M428.024,298.534l21.626,-1.463l1.463,15.533l-26.014,0l2.925,-14.07Z" style="fill:#ececec;"/><path d="M410.47,323.687c0,0 -26.853,1.463 -40.263,1.463c-13.404,0 -40.193,-1.463 -40.193,-1.463l-7.314,8.214c0,0 31.666,1.463 47.507,1.463c15.848,0 47.578,-1.463 47.578,-1.463l-7.315,-8.214Z" style="fill:#ececec;"/><rect x="333.204" y="311.42" width="74.076" height="3.918" style="fill:#ececec;"/><ellipse cx="451.113" cy="270.372" rx="7.337" ry="4.843" style="fill:#b54c2e;"/><ellipse cx="289.371" cy="270.372" rx="7.337" ry="4.843" style="fill:#b54c2e;"/></g></g></svg>